ISO-10303-21;
HEADER;
/* Generated by software containing ST-Developer
 * from STEP Tools, Inc. (www.steptools.com) 
 */

FILE_DESCRIPTION(
/* description */ (''),
/* implementation_level */ '2;1');

FILE_NAME(
/* name */ 'MG90S Servo Horn (1 spork).step',
/* time_stamp */ '2026-03-08T17:11:52+05:30',
/* author */ (''),
/* organization */ (''),
/* preprocessor_version */ 'ST-DEVELOPER v20.1',
/* originating_system */ 'Autodesk Translation Framework v14.24.0.0',
/* authorisation */ '');

FILE_SCHEMA (('AUTOMOTIVE_DESIGN { 1 0 10303 214 3 1 1 }'));
ENDSEC;

DATA;
#10=MECHANICAL_DESIGN_GEOMETRIC_PRESENTATION_REPRESENTATION('',(#13),#634);
#11=SHAPE_REPRESENTATION_RELATIONSHIP('SRR','None',#641,#12);
#12=ADVANCED_BREP_SHAPE_REPRESENTATION('',(#14),#633);
#13=STYLED_ITEM('',(#650),#14);
#14=MANIFOLD_SOLID_BREP('Body9',#362);
#15=FACE_BOUND('',#64,.T.);
#16=FACE_BOUND('',#66,.T.);
#17=FACE_BOUND('',#79,.T.);
#18=FACE_BOUND('',#80,.T.);
#19=FACE_BOUND('',#81,.T.);
#20=FACE_BOUND('',#82,.T.);
#21=FACE_BOUND('',#83,.T.);
#22=FACE_BOUND('',#84,.T.);
#23=FACE_BOUND('',#85,.T.);
#24=FACE_BOUND('',#87,.T.);
#25=FACE_BOUND('',#88,.T.);
#26=FACE_BOUND('',#89,.T.);
#27=FACE_BOUND('',#90,.T.);
#28=FACE_BOUND('',#91,.T.);
#29=FACE_BOUND('',#92,.T.);
#30=FACE_BOUND('',#93,.T.);
#31=FACE_BOUND('',#96,.T.);
#32=FACE_BOUND('',#98,.T.);
#33=FACE_BOUND('',#100,.T.);
#34=PLANE('',#379);
#35=PLANE('',#381);
#36=PLANE('',#406);
#37=PLANE('',#410);
#38=PLANE('',#411);
#39=PLANE('',#413);
#40=PLANE('',#420);
#41=PLANE('',#421);
#42=FACE_OUTER_BOUND('',#62,.T.);
#43=FACE_OUTER_BOUND('',#63,.T.);
#44=FACE_OUTER_BOUND('',#65,.T.);
#45=FACE_OUTER_BOUND('',#67,.T.);
#46=FACE_OUTER_BOUND('',#68,.T.);
#47=FACE_OUTER_BOUND('',#69,.T.);
#48=FACE_OUTER_BOUND('',#70,.T.);
#49=FACE_OUTER_BOUND('',#71,.T.);
#50=FACE_OUTER_BOUND('',#72,.T.);
#51=FACE_OUTER_BOUND('',#73,.T.);
#52=FACE_OUTER_BOUND('',#74,.T.);
#53=FACE_OUTER_BOUND('',#75,.T.);
#54=FACE_OUTER_BOUND('',#76,.T.);
#55=FACE_OUTER_BOUND('',#77,.T.);
#56=FACE_OUTER_BOUND('',#78,.T.);
#57=FACE_OUTER_BOUND('',#86,.T.);
#58=FACE_OUTER_BOUND('',#94,.T.);
#59=FACE_OUTER_BOUND('',#95,.T.);
#60=FACE_OUTER_BOUND('',#97,.T.);
#61=FACE_OUTER_BOUND('',#99,.T.);
#62=EDGE_LOOP('',(#240,#241,#242,#243));
#63=EDGE_LOOP('',(#244));
#64=EDGE_LOOP('',(#245));
#65=EDGE_LOOP('',(#246));
#66=EDGE_LOOP('',(#247));
#67=EDGE_LOOP('',(#248,#249,#250,#251));
#68=EDGE_LOOP('',(#252,#253,#254,#255));
#69=EDGE_LOOP('',(#256,#257,#258,#259));
#70=EDGE_LOOP('',(#260,#261,#262,#263));
#71=EDGE_LOOP('',(#264,#265,#266,#267));
#72=EDGE_LOOP('',(#268,#269,#270,#271));
#73=EDGE_LOOP('',(#272,#273,#274,#275));
#74=EDGE_LOOP('',(#276,#277,#278,#279));
#75=EDGE_LOOP('',(#280,#281,#282,#283));
#76=EDGE_LOOP('',(#284,#285,#286,#287));
#77=EDGE_LOOP('',(#288,#289,#290,#291));
#78=EDGE_LOOP('',(#292,#293,#294,#295));
#79=EDGE_LOOP('',(#296));
#80=EDGE_LOOP('',(#297));
#81=EDGE_LOOP('',(#298));
#82=EDGE_LOOP('',(#299));
#83=EDGE_LOOP('',(#300));
#84=EDGE_LOOP('',(#301));
#85=EDGE_LOOP('',(#302));
#86=EDGE_LOOP('',(#303,#304,#305,#306));
#87=EDGE_LOOP('',(#307));
#88=EDGE_LOOP('',(#308));
#89=EDGE_LOOP('',(#309));
#90=EDGE_LOOP('',(#310));
#91=EDGE_LOOP('',(#311));
#92=EDGE_LOOP('',(#312));
#93=EDGE_LOOP('',(#313));
#94=EDGE_LOOP('',(#314,#315,#316,#317));
#95=EDGE_LOOP('',(#318,#319,#320,#321));
#96=EDGE_LOOP('',(#322,#323,#324,#325));
#97=EDGE_LOOP('',(#326));
#98=EDGE_LOOP('',(#327));
#99=EDGE_LOOP('',(#328));
#100=EDGE_LOOP('',(#329));
#101=LINE('',#540,#120);
#102=LINE('',#550,#121);
#103=LINE('',#556,#122);
#104=LINE('',#562,#123);
#105=LINE('',#568,#124);
#106=LINE('',#574,#125);
#107=LINE('',#580,#126);
#108=LINE('',#586,#127);
#109=LINE('',#592,#128);
#110=LINE('',#597,#129);
#111=LINE('',#599,#130);
#112=LINE('',#601,#131);
#113=LINE('',#602,#132);
#114=LINE('',#608,#133);
#115=LINE('',#611,#134);
#116=LINE('',#613,#135);
#117=LINE('',#614,#136);
#118=LINE('',#622,#137);
#119=LINE('',#627,#138);
#120=VECTOR('',#428,1.3);
#121=VECTOR('',#441,2.4);
#122=VECTOR('',#448,0.499999999999999);
#123=VECTOR('',#455,0.5);
#124=VECTOR('',#462,0.499999999999999);
#125=VECTOR('',#469,0.5);
#126=VECTOR('',#476,0.499999999999999);
#127=VECTOR('',#483,0.5);
#128=VECTOR('',#490,0.5);
#129=VECTOR('',#495,10.);
#130=VECTOR('',#496,10.);
#131=VECTOR('',#497,10.);
#132=VECTOR('',#498,10.);
#133=VECTOR('',#505,10.);
#134=VECTOR('',#508,10.);
#135=VECTOR('',#509,10.);
#136=VECTOR('',#510,10.);
#137=VECTOR('',#523,2.4);
#138=VECTOR('',#528,3.4);
#139=CIRCLE('',#377,1.3);
#140=CIRCLE('',#378,1.3);
#141=CIRCLE('',#380,2.4);
#142=CIRCLE('',#382,2.4);
#143=CIRCLE('',#384,2.4);
#144=CIRCLE('',#386,0.499999999999999);
#145=CIRCLE('',#387,0.499999999999999);
#146=CIRCLE('',#389,0.5);
#147=CIRCLE('',#390,0.5);
#148=CIRCLE('',#392,0.499999999999999);
#149=CIRCLE('',#393,0.499999999999999);
#150=CIRCLE('',#395,0.5);
#151=CIRCLE('',#396,0.5);
#152=CIRCLE('',#398,0.499999999999999);
#153=CIRCLE('',#399,0.499999999999999);
#154=CIRCLE('',#401,0.5);
#155=CIRCLE('',#402,0.5);
#156=CIRCLE('',#404,0.5);
#157=CIRCLE('',#405,0.5);
#158=CIRCLE('',#408,1.80000000000018);
#159=CIRCLE('',#409,1.80000000000018);
#160=CIRCLE('',#412,3.4);
#161=CIRCLE('',#414,3.4);
#162=CIRCLE('',#416,2.4);
#163=CIRCLE('',#418,3.4);
#164=CIRCLE('',#419,3.4);
#165=VERTEX_POINT('',#537);
#166=VERTEX_POINT('',#539);
#167=VERTEX_POINT('',#543);
#168=VERTEX_POINT('',#546);
#169=VERTEX_POINT('',#549);
#170=VERTEX_POINT('',#553);
#171=VERTEX_POINT('',#555);
#172=VERTEX_POINT('',#559);
#173=VERTEX_POINT('',#561);
#174=VERTEX_POINT('',#565);
#175=VERTEX_POINT('',#567);
#176=VERTEX_POINT('',#571);
#177=VERTEX_POINT('',#573);
#178=VERTEX_POINT('',#577);
#179=VERTEX_POINT('',#579);
#180=VERTEX_POINT('',#583);
#181=VERTEX_POINT('',#585);
#182=VERTEX_POINT('',#589);
#183=VERTEX_POINT('',#591);
#184=VERTEX_POINT('',#595);
#185=VERTEX_POINT('',#596);
#186=VERTEX_POINT('',#598);
#187=VERTEX_POINT('',#600);
#188=VERTEX_POINT('',#604);
#189=VERTEX_POINT('',#606);
#190=VERTEX_POINT('',#610);
#191=VERTEX_POINT('',#612);
#192=VERTEX_POINT('',#620);
#193=VERTEX_POINT('',#624);
#194=VERTEX_POINT('',#626);
#195=EDGE_CURVE('',#165,#165,#139,.T.);
#196=EDGE_CURVE('',#165,#166,#101,.T.);
#197=EDGE_CURVE('',#166,#166,#140,.T.);
#198=EDGE_CURVE('',#167,#167,#141,.T.);
#199=EDGE_CURVE('',#168,#168,#142,.T.);
#200=EDGE_CURVE('',#168,#169,#102,.T.);
#201=EDGE_CURVE('',#169,#169,#143,.T.);
#202=EDGE_CURVE('',#170,#170,#144,.T.);
#203=EDGE_CURVE('',#170,#171,#103,.T.);
#204=EDGE_CURVE('',#171,#171,#145,.T.);
#205=EDGE_CURVE('',#172,#172,#146,.T.);
#206=EDGE_CURVE('',#172,#173,#104,.T.);
#207=EDGE_CURVE('',#173,#173,#147,.T.);
#208=EDGE_CURVE('',#174,#174,#148,.T.);
#209=EDGE_CURVE('',#174,#175,#105,.T.);
#210=EDGE_CURVE('',#175,#175,#149,.T.);
#211=EDGE_CURVE('',#176,#176,#150,.T.);
#212=EDGE_CURVE('',#176,#177,#106,.T.);
#213=EDGE_CURVE('',#177,#177,#151,.T.);
#214=EDGE_CURVE('',#178,#178,#152,.T.);
#215=EDGE_CURVE('',#178,#179,#107,.T.);
#216=EDGE_CURVE('',#179,#179,#153,.T.);
#217=EDGE_CURVE('',#180,#180,#154,.T.);
#218=EDGE_CURVE('',#180,#181,#108,.T.);
#219=EDGE_CURVE('',#181,#181,#155,.T.);
#220=EDGE_CURVE('',#182,#182,#156,.T.);
#221=EDGE_CURVE('',#182,#183,#109,.T.);
#222=EDGE_CURVE('',#183,#183,#157,.T.);
#223=EDGE_CURVE('',#184,#185,#110,.T.);
#224=EDGE_CURVE('',#185,#186,#111,.T.);
#225=EDGE_CURVE('',#187,#186,#112,.T.);
#226=EDGE_CURVE('',#184,#187,#113,.T.);
#227=EDGE_CURVE('',#188,#184,#158,.T.);
#228=EDGE_CURVE('',#189,#187,#159,.T.);
#229=EDGE_CURVE('',#188,#189,#114,.T.);
#230=EDGE_CURVE('',#190,#188,#115,.T.);
#231=EDGE_CURVE('',#191,#189,#116,.T.);
#232=EDGE_CURVE('',#190,#191,#117,.T.);
#233=EDGE_CURVE('',#191,#186,#160,.T.);
#234=EDGE_CURVE('',#185,#190,#161,.T.);
#235=EDGE_CURVE('',#192,#192,#162,.T.);
#236=EDGE_CURVE('',#192,#167,#118,.T.);
#237=EDGE_CURVE('',#193,#193,#163,.T.);
#238=EDGE_CURVE('',#193,#194,#119,.T.);
#239=EDGE_CURVE('',#194,#194,#164,.T.);
#240=ORIENTED_EDGE('',*,*,#195,.F.);
#241=ORIENTED_EDGE('',*,*,#196,.T.);
#242=ORIENTED_EDGE('',*,*,#197,.T.);
#243=ORIENTED_EDGE('',*,*,#196,.F.);
#244=ORIENTED_EDGE('',*,*,#198,.F.);
#245=ORIENTED_EDGE('',*,*,#195,.T.);
#246=ORIENTED_EDGE('',*,*,#199,.F.);
#247=ORIENTED_EDGE('',*,*,#197,.F.);
#248=ORIENTED_EDGE('',*,*,#199,.T.);
#249=ORIENTED_EDGE('',*,*,#200,.T.);
#250=ORIENTED_EDGE('',*,*,#201,.T.);
#251=ORIENTED_EDGE('',*,*,#200,.F.);
#252=ORIENTED_EDGE('',*,*,#202,.F.);
#253=ORIENTED_EDGE('',*,*,#203,.T.);
#254=ORIENTED_EDGE('',*,*,#204,.T.);
#255=ORIENTED_EDGE('',*,*,#203,.F.);
#256=ORIENTED_EDGE('',*,*,#205,.F.);
#257=ORIENTED_EDGE('',*,*,#206,.T.);
#258=ORIENTED_EDGE('',*,*,#207,.T.);
#259=ORIENTED_EDGE('',*,*,#206,.F.);
#260=ORIENTED_EDGE('',*,*,#208,.F.);
#261=ORIENTED_EDGE('',*,*,#209,.T.);
#262=ORIENTED_EDGE('',*,*,#210,.T.);
#263=ORIENTED_EDGE('',*,*,#209,.F.);
#264=ORIENTED_EDGE('',*,*,#211,.F.);
#265=ORIENTED_EDGE('',*,*,#212,.T.);
#266=ORIENTED_EDGE('',*,*,#213,.T.);
#267=ORIENTED_EDGE('',*,*,#212,.F.);
#268=ORIENTED_EDGE('',*,*,#214,.F.);
#269=ORIENTED_EDGE('',*,*,#215,.T.);
#270=ORIENTED_EDGE('',*,*,#216,.T.);
#271=ORIENTED_EDGE('',*,*,#215,.F.);
#272=ORIENTED_EDGE('',*,*,#217,.F.);
#273=ORIENTED_EDGE('',*,*,#218,.T.);
#274=ORIENTED_EDGE('',*,*,#219,.T.);
#275=ORIENTED_EDGE('',*,*,#218,.F.);
#276=ORIENTED_EDGE('',*,*,#220,.F.);
#277=ORIENTED_EDGE('',*,*,#221,.T.);
#278=ORIENTED_EDGE('',*,*,#222,.T.);
#279=ORIENTED_EDGE('',*,*,#221,.F.);
#280=ORIENTED_EDGE('',*,*,#223,.T.);
#281=ORIENTED_EDGE('',*,*,#224,.T.);
#282=ORIENTED_EDGE('',*,*,#225,.F.);
#283=ORIENTED_EDGE('',*,*,#226,.F.);
#284=ORIENTED_EDGE('',*,*,#227,.T.);
#285=ORIENTED_EDGE('',*,*,#226,.T.);
#286=ORIENTED_EDGE('',*,*,#228,.F.);
#287=ORIENTED_EDGE('',*,*,#229,.F.);
#288=ORIENTED_EDGE('',*,*,#230,.T.);
#289=ORIENTED_EDGE('',*,*,#229,.T.);
#290=ORIENTED_EDGE('',*,*,#231,.F.);
#291=ORIENTED_EDGE('',*,*,#232,.F.);
#292=ORIENTED_EDGE('',*,*,#231,.T.);
#293=ORIENTED_EDGE('',*,*,#228,.T.);
#294=ORIENTED_EDGE('',*,*,#225,.T.);
#295=ORIENTED_EDGE('',*,*,#233,.F.);
#296=ORIENTED_EDGE('',*,*,#220,.T.);
#297=ORIENTED_EDGE('',*,*,#217,.T.);
#298=ORIENTED_EDGE('',*,*,#214,.T.);
#299=ORIENTED_EDGE('',*,*,#211,.T.);
#300=ORIENTED_EDGE('',*,*,#208,.T.);
#301=ORIENTED_EDGE('',*,*,#205,.T.);
#302=ORIENTED_EDGE('',*,*,#202,.T.);
#303=ORIENTED_EDGE('',*,*,#230,.F.);
#304=ORIENTED_EDGE('',*,*,#234,.F.);
#305=ORIENTED_EDGE('',*,*,#223,.F.);
#306=ORIENTED_EDGE('',*,*,#227,.F.);
#307=ORIENTED_EDGE('',*,*,#222,.F.);
#308=ORIENTED_EDGE('',*,*,#219,.F.);
#309=ORIENTED_EDGE('',*,*,#216,.F.);
#310=ORIENTED_EDGE('',*,*,#213,.F.);
#311=ORIENTED_EDGE('',*,*,#210,.F.);
#312=ORIENTED_EDGE('',*,*,#207,.F.);
#313=ORIENTED_EDGE('',*,*,#204,.F.);
#314=ORIENTED_EDGE('',*,*,#235,.F.);
#315=ORIENTED_EDGE('',*,*,#236,.T.);
#316=ORIENTED_EDGE('',*,*,#198,.T.);
#317=ORIENTED_EDGE('',*,*,#236,.F.);
#318=ORIENTED_EDGE('',*,*,#237,.F.);
#319=ORIENTED_EDGE('',*,*,#238,.T.);
#320=ORIENTED_EDGE('',*,*,#239,.T.);
#321=ORIENTED_EDGE('',*,*,#238,.F.);
#322=ORIENTED_EDGE('',*,*,#232,.T.);
#323=ORIENTED_EDGE('',*,*,#233,.T.);
#324=ORIENTED_EDGE('',*,*,#224,.F.);
#325=ORIENTED_EDGE('',*,*,#234,.T.);
#326=ORIENTED_EDGE('',*,*,#237,.T.);
#327=ORIENTED_EDGE('',*,*,#235,.T.);
#328=ORIENTED_EDGE('',*,*,#239,.F.);
#329=ORIENTED_EDGE('',*,*,#201,.F.);
#330=CYLINDRICAL_SURFACE('',#376,1.3);
#331=CYLINDRICAL_SURFACE('',#383,2.4);
#332=CYLINDRICAL_SURFACE('',#385,0.499999999999999);
#333=CYLINDRICAL_SURFACE('',#388,0.5);
#334=CYLINDRICAL_SURFACE('',#391,0.499999999999999);
#335=CYLINDRICAL_SURFACE('',#394,0.5);
#336=CYLINDRICAL_SURFACE('',#397,0.499999999999999);
#337=CYLINDRICAL_SURFACE('',#400,0.5);
#338=CYLINDRICAL_SURFACE('',#403,0.5);
#339=CYLINDRICAL_SURFACE('',#407,1.80000000000018);
#340=CYLINDRICAL_SURFACE('',#415,2.4);
#341=CYLINDRICAL_SURFACE('',#417,3.4);
#342=ADVANCED_FACE('',(#42),#330,.F.);
#343=ADVANCED_FACE('',(#43,#15),#34,.T.);
#344=ADVANCED_FACE('',(#44,#16),#35,.F.);
#345=ADVANCED_FACE('',(#45),#331,.F.);
#346=ADVANCED_FACE('',(#46),#332,.F.);
#347=ADVANCED_FACE('',(#47),#333,.F.);
#348=ADVANCED_FACE('',(#48),#334,.F.);
#349=ADVANCED_FACE('',(#49),#335,.F.);
#350=ADVANCED_FACE('',(#50),#336,.F.);
#351=ADVANCED_FACE('',(#51),#337,.F.);
#352=ADVANCED_FACE('',(#52),#338,.F.);
#353=ADVANCED_FACE('',(#53),#36,.T.);
#354=ADVANCED_FACE('',(#54),#339,.T.);
#355=ADVANCED_FACE('',(#55),#37,.T.);
#356=ADVANCED_FACE('',(#56,#17,#18,#19,#20,#21,#22,#23),#38,.T.);
#357=ADVANCED_FACE('',(#57,#24,#25,#26,#27,#28,#29,#30),#39,.F.);
#358=ADVANCED_FACE('',(#58),#340,.F.);
#359=ADVANCED_FACE('',(#59,#31),#341,.T.);
#360=ADVANCED_FACE('',(#60,#32),#40,.T.);
#361=ADVANCED_FACE('',(#61,#33),#41,.F.);
#362=CLOSED_SHELL('',(#342,#343,#344,#345,#346,#347,#348,#349,#350,#351,
#352,#353,#354,#355,#356,#357,#358,#359,#360,#361));
#363=DERIVED_UNIT_ELEMENT(#365,1.);
#364=DERIVED_UNIT_ELEMENT(#636,-3.);
#365=(
MASS_UNIT()
NAMED_UNIT(*)
SI_UNIT(.KILO.,.GRAM.)
);
#366=DERIVED_UNIT((#363,#364));
#367=MEASURE_REPRESENTATION_ITEM('density measure',
POSITIVE_RATIO_MEASURE(7850.),#366);
#368=PROPERTY_DEFINITION_REPRESENTATION(#373,#370);
#369=PROPERTY_DEFINITION_REPRESENTATION(#374,#371);
#370=REPRESENTATION('material name',(#372),#633);
#371=REPRESENTATION('density',(#367),#633);
#372=DESCRIPTIVE_REPRESENTATION_ITEM('Steel','Steel');
#373=PROPERTY_DEFINITION('material property','material name',#643);
#374=PROPERTY_DEFINITION('material property','density of part',#643);
#375=AXIS2_PLACEMENT_3D('',#535,#422,#423);
#376=AXIS2_PLACEMENT_3D('',#536,#424,#425);
#377=AXIS2_PLACEMENT_3D('',#538,#426,#427);
#378=AXIS2_PLACEMENT_3D('',#541,#429,#430);
#379=AXIS2_PLACEMENT_3D('',#542,#431,#432);
#380=AXIS2_PLACEMENT_3D('',#544,#433,#434);
#381=AXIS2_PLACEMENT_3D('',#545,#435,#436);
#382=AXIS2_PLACEMENT_3D('',#547,#437,#438);
#383=AXIS2_PLACEMENT_3D('',#548,#439,#440);
#384=AXIS2_PLACEMENT_3D('',#551,#442,#443);
#385=AXIS2_PLACEMENT_3D('',#552,#444,#445);
#386=AXIS2_PLACEMENT_3D('',#554,#446,#447);
#387=AXIS2_PLACEMENT_3D('',#557,#449,#450);
#388=AXIS2_PLACEMENT_3D('',#558,#451,#452);
#389=AXIS2_PLACEMENT_3D('',#560,#453,#454);
#390=AXIS2_PLACEMENT_3D('',#563,#456,#457);
#391=AXIS2_PLACEMENT_3D('',#564,#458,#459);
#392=AXIS2_PLACEMENT_3D('',#566,#460,#461);
#393=AXIS2_PLACEMENT_3D('',#569,#463,#464);
#394=AXIS2_PLACEMENT_3D('',#570,#465,#466);
#395=AXIS2_PLACEMENT_3D('',#572,#467,#468);
#396=AXIS2_PLACEMENT_3D('',#575,#470,#471);
#397=AXIS2_PLACEMENT_3D('',#576,#472,#473);
#398=AXIS2_PLACEMENT_3D('',#578,#474,#475);
#399=AXIS2_PLACEMENT_3D('',#581,#477,#478);
#400=AXIS2_PLACEMENT_3D('',#582,#479,#480);
#401=AXIS2_PLACEMENT_3D('',#584,#481,#482);
#402=AXIS2_PLACEMENT_3D('',#587,#484,#485);
#403=AXIS2_PLACEMENT_3D('',#588,#486,#487);
#404=AXIS2_PLACEMENT_3D('',#590,#488,#489);
#405=AXIS2_PLACEMENT_3D('',#593,#491,#492);
#406=AXIS2_PLACEMENT_3D('',#594,#493,#494);
#407=AXIS2_PLACEMENT_3D('',#603,#499,#500);
#408=AXIS2_PLACEMENT_3D('',#605,#501,#502);
#409=AXIS2_PLACEMENT_3D('',#607,#503,#504);
#410=AXIS2_PLACEMENT_3D('',#609,#506,#507);
#411=AXIS2_PLACEMENT_3D('',#615,#511,#512);
#412=AXIS2_PLACEMENT_3D('',#616,#513,#514);
#413=AXIS2_PLACEMENT_3D('',#617,#515,#516);
#414=AXIS2_PLACEMENT_3D('',#618,#517,#518);
#415=AXIS2_PLACEMENT_3D('',#619,#519,#520);
#416=AXIS2_PLACEMENT_3D('',#621,#521,#522);
#417=AXIS2_PLACEMENT_3D('',#623,#524,#525);
#418=AXIS2_PLACEMENT_3D('',#625,#526,#527);
#419=AXIS2_PLACEMENT_3D('',#628,#529,#530);
#420=AXIS2_PLACEMENT_3D('',#629,#531,#532);
#421=AXIS2_PLACEMENT_3D('',#630,#533,#534);
#422=DIRECTION('axis',(0.,0.,1.));
#423=DIRECTION('refdir',(1.,0.,0.));
#424=DIRECTION('center_axis',(0.,-1.,0.));
#425=DIRECTION('ref_axis',(1.,0.,0.));
#426=DIRECTION('center_axis',(0.,1.,0.));
#427=DIRECTION('ref_axis',(1.,0.,0.));
#428=DIRECTION('',(0.,1.,0.));
#429=DIRECTION('center_axis',(0.,1.,0.));
#430=DIRECTION('ref_axis',(1.,0.,0.));
#431=DIRECTION('center_axis',(0.,-1.,0.));
#432=DIRECTION('ref_axis',(1.,0.,0.));
#433=DIRECTION('center_axis',(0.,1.,0.));
#434=DIRECTION('ref_axis',(1.,0.,0.));
#435=DIRECTION('center_axis',(0.,-1.,0.));
#436=DIRECTION('ref_axis',(1.,0.,0.));
#437=DIRECTION('center_axis',(0.,-1.,0.));
#438=DIRECTION('ref_axis',(1.,0.,0.));
#439=DIRECTION('center_axis',(0.,-1.,0.));
#440=DIRECTION('ref_axis',(1.,0.,0.));
#441=DIRECTION('',(0.,1.,0.));
#442=DIRECTION('center_axis',(0.,1.,0.));
#443=DIRECTION('ref_axis',(1.,0.,0.));
#444=DIRECTION('center_axis',(0.,-1.,0.));
#445=DIRECTION('ref_axis',(1.,0.,0.));
#446=DIRECTION('center_axis',(0.,1.,0.));
#447=DIRECTION('ref_axis',(1.,0.,0.));
#448=DIRECTION('',(0.,1.,0.));
#449=DIRECTION('center_axis',(0.,1.,0.));
#450=DIRECTION('ref_axis',(1.,0.,0.));
#451=DIRECTION('center_axis',(0.,-1.,0.));
#452=DIRECTION('ref_axis',(1.,0.,0.));
#453=DIRECTION('center_axis',(0.,1.,0.));
#454=DIRECTION('ref_axis',(1.,0.,0.));
#455=DIRECTION('',(0.,1.,0.));
#456=DIRECTION('center_axis',(0.,1.,0.));
#457=DIRECTION('ref_axis',(1.,0.,0.));
#458=DIRECTION('center_axis',(0.,-1.,0.));
#459=DIRECTION('ref_axis',(1.,0.,0.));
#460=DIRECTION('center_axis',(0.,1.,0.));
#461=DIRECTION('ref_axis',(1.,0.,0.));
#462=DIRECTION('',(0.,1.,0.));
#463=DIRECTION('center_axis',(0.,1.,0.));
#464=DIRECTION('ref_axis',(1.,0.,0.));
#465=DIRECTION('center_axis',(0.,-1.,0.));
#466=DIRECTION('ref_axis',(1.,0.,0.));
#467=DIRECTION('center_axis',(0.,1.,0.));
#468=DIRECTION('ref_axis',(1.,0.,0.));
#469=DIRECTION('',(0.,1.,0.));
#470=DIRECTION('center_axis',(0.,1.,0.));
#471=DIRECTION('ref_axis',(1.,0.,0.));
#472=DIRECTION('center_axis',(0.,-1.,0.));
#473=DIRECTION('ref_axis',(1.,0.,0.));
#474=DIRECTION('center_axis',(0.,1.,0.));
#475=DIRECTION('ref_axis',(1.,0.,0.));
#476=DIRECTION('',(0.,1.,0.));
#477=DIRECTION('center_axis',(0.,1.,0.));
#478=DIRECTION('ref_axis',(1.,0.,0.));
#479=DIRECTION('center_axis',(0.,-1.,0.));
#480=DIRECTION('ref_axis',(1.,0.,0.));
#481=DIRECTION('center_axis',(0.,1.,0.));
#482=DIRECTION('ref_axis',(1.,0.,0.));
#483=DIRECTION('',(0.,1.,0.));
#484=DIRECTION('center_axis',(0.,1.,0.));
#485=DIRECTION('ref_axis',(1.,0.,0.));
#486=DIRECTION('center_axis',(0.,-1.,0.));
#487=DIRECTION('ref_axis',(1.,0.,0.));
#488=DIRECTION('center_axis',(0.,1.,0.));
#489=DIRECTION('ref_axis',(1.,0.,0.));
#490=DIRECTION('',(0.,1.,0.));
#491=DIRECTION('center_axis',(0.,1.,0.));
#492=DIRECTION('ref_axis',(1.,0.,0.));
#493=DIRECTION('center_axis',(0.0975609756097562,0.,0.995229549419667));
#494=DIRECTION('ref_axis',(-0.995229549419667,0.,0.0975609756097562));
#495=DIRECTION('',(-0.995229549419667,0.,0.0975609756097562));
#496=DIRECTION('',(0.,-1.,0.));
#497=DIRECTION('',(-0.995229549419667,0.,0.0975609756097562));
#498=DIRECTION('',(0.,-1.,0.));
#499=DIRECTION('center_axis',(0.,-1.,0.));
#500=DIRECTION('ref_axis',(0.0975609756097438,0.,-0.995229549419668));
#501=DIRECTION('center_axis',(0.,-1.,0.));
#502=DIRECTION('ref_axis',(0.0975609756097438,0.,-0.995229549419668));
#503=DIRECTION('center_axis',(0.,-1.,0.));
#504=DIRECTION('ref_axis',(0.0975609756097438,0.,-0.995229549419668));
#505=DIRECTION('',(0.,-1.,0.));
#506=DIRECTION('center_axis',(0.0975609756097661,0.,-0.995229549419666));
#507=DIRECTION('ref_axis',(0.995229549419666,0.,0.0975609756097661));
#508=DIRECTION('',(0.995229549419666,0.,0.0975609756097661));
#509=DIRECTION('',(0.995229549419666,0.,0.0975609756097661));
#510=DIRECTION('',(0.,-1.,0.));
#511=DIRECTION('center_axis',(0.,-1.,0.));
#512=DIRECTION('ref_axis',(1.,0.,0.));
#513=DIRECTION('center_axis',(0.,-1.,0.));
#514=DIRECTION('ref_axis',(1.,0.,0.));
#515=DIRECTION('center_axis',(0.,-1.,0.));
#516=DIRECTION('ref_axis',(1.,0.,0.));
#517=DIRECTION('center_axis',(0.,1.,0.));
#518=DIRECTION('ref_axis',(1.,0.,0.));
#519=DIRECTION('center_axis',(0.,-1.,0.));
#520=DIRECTION('ref_axis',(1.,0.,0.));
#521=DIRECTION('center_axis',(0.,1.,0.));
#522=DIRECTION('ref_axis',(1.,0.,0.));
#523=DIRECTION('',(0.,1.,0.));
#524=DIRECTION('center_axis',(0.,-1.,0.));
#525=DIRECTION('ref_axis',(1.,0.,0.));
#526=DIRECTION('center_axis',(0.,-1.,0.));
#527=DIRECTION('ref_axis',(1.,0.,0.));
#528=DIRECTION('',(0.,1.,0.));
#529=DIRECTION('center_axis',(0.,-1.,0.));
#530=DIRECTION('ref_axis',(1.,0.,0.));
#531=DIRECTION('center_axis',(0.,-1.,0.));
#532=DIRECTION('ref_axis',(1.,0.,0.));
#533=DIRECTION('center_axis',(0.,-1.,0.));
#534=DIRECTION('ref_axis',(1.,0.,0.));
#535=CARTESIAN_POINT('',(0.,0.,0.));
#536=CARTESIAN_POINT('Origin',(30.,-0.7,0.));
#537=CARTESIAN_POINT('',(28.7,-1.9,-1.59204083889156E-16));
#538=CARTESIAN_POINT('Origin',(30.,-1.9,0.));
#539=CARTESIAN_POINT('',(28.7,-0.7,-1.59204083889156E-16));
#540=CARTESIAN_POINT('',(28.7,-0.7,-1.59204083889156E-16));
#541=CARTESIAN_POINT('Origin',(30.,-0.7,0.));
#542=CARTESIAN_POINT('Origin',(30.,-1.9,0.));
#543=CARTESIAN_POINT('',(27.6,-1.9,-2.93915231795365E-16));
#544=CARTESIAN_POINT('Origin',(30.,-1.9,0.));
#545=CARTESIAN_POINT('Origin',(30.,-0.7,0.));
#546=CARTESIAN_POINT('',(27.6,-0.7,-2.93915231795365E-16));
#547=CARTESIAN_POINT('Origin',(30.,-0.7,0.));
#548=CARTESIAN_POINT('Origin',(30.,-2.77436787862763E-32,0.));
#549=CARTESIAN_POINT('',(27.6,-2.77436787862763E-32,-2.93915231795365E-16));
#550=CARTESIAN_POINT('',(27.6,-2.77436787862763E-32,-2.93915231795365E-16));
#551=CARTESIAN_POINT('Origin',(30.,-2.77436787862763E-32,0.));
#552=CARTESIAN_POINT('Origin',(35.1,-0.2,0.));
#553=CARTESIAN_POINT('',(34.6,-2.3,-6.12323399573676E-17));
#554=CARTESIAN_POINT('Origin',(35.1,-2.3,0.));
#555=CARTESIAN_POINT('',(34.6,-0.2,-6.12323399573676E-17));
#556=CARTESIAN_POINT('',(34.6,-0.2,-6.12323399573676E-17));
#557=CARTESIAN_POINT('Origin',(35.1,-0.2,0.));
#558=CARTESIAN_POINT('Origin',(44.7666666666667,-0.2,0.));
#559=CARTESIAN_POINT('',(44.2666666666667,-2.3,-6.12323399573677E-17));
#560=CARTESIAN_POINT('Origin',(44.7666666666667,-2.3,0.));
#561=CARTESIAN_POINT('',(44.2666666666667,-0.2,-6.12323399573677E-17));
#562=CARTESIAN_POINT('',(44.2666666666667,-0.2,-6.12323399573677E-17));
#563=CARTESIAN_POINT('Origin',(44.7666666666667,-0.2,0.));
#564=CARTESIAN_POINT('Origin',(38.9666666666667,-0.2,0.));
#565=CARTESIAN_POINT('',(38.4666666666667,-2.3,-6.12323399573676E-17));
#566=CARTESIAN_POINT('Origin',(38.9666666666667,-2.3,0.));
#567=CARTESIAN_POINT('',(38.4666666666667,-0.2,-6.12323399573676E-17));
#568=CARTESIAN_POINT('',(38.4666666666667,-0.2,-6.12323399573676E-17));
#569=CARTESIAN_POINT('Origin',(38.9666666666667,-0.2,0.));
#570=CARTESIAN_POINT('Origin',(46.7,-0.2,0.));
#571=CARTESIAN_POINT('',(46.2,-2.3,-6.12323399573677E-17));
#572=CARTESIAN_POINT('Origin',(46.7,-2.3,0.));
#573=CARTESIAN_POINT('',(46.2,-0.2,-6.12323399573677E-17));
#574=CARTESIAN_POINT('',(46.2,-0.2,-6.12323399573677E-17));
#575=CARTESIAN_POINT('Origin',(46.7,-0.2,0.));
#576=CARTESIAN_POINT('Origin',(37.0333333333333,-0.2,0.));
#577=CARTESIAN_POINT('',(36.5333333333333,-2.3,-6.12323399573676E-17));
#578=CARTESIAN_POINT('Origin',(37.0333333333333,-2.3,0.));
#579=CARTESIAN_POINT('',(36.5333333333333,-0.2,-6.12323399573676E-17));
#580=CARTESIAN_POINT('',(36.5333333333333,-0.2,-6.12323399573676E-17));
#581=CARTESIAN_POINT('Origin',(37.0333333333333,-0.2,0.));
#582=CARTESIAN_POINT('Origin',(42.8333333333333,-0.2,0.));
#583=CARTESIAN_POINT('',(42.3333333333333,-2.3,-6.12323399573677E-17));
#584=CARTESIAN_POINT('Origin',(42.8333333333333,-2.3,0.));
#585=CARTESIAN_POINT('',(42.3333333333333,-0.2,-6.12323399573677E-17));
#586=CARTESIAN_POINT('',(42.3333333333333,-0.2,-6.12323399573677E-17));
#587=CARTESIAN_POINT('Origin',(42.8333333333333,-0.2,0.));
#588=CARTESIAN_POINT('Origin',(40.9,-0.2,0.));
#589=CARTESIAN_POINT('',(40.4,-2.3,-6.12323399573677E-17));
#590=CARTESIAN_POINT('Origin',(40.9,-2.3,0.));
#591=CARTESIAN_POINT('',(40.4,-0.2,-6.12323399573677E-17));
#592=CARTESIAN_POINT('',(40.4,-0.2,-6.12323399573677E-17));
#593=CARTESIAN_POINT('Origin',(40.9,-0.2,0.));
#594=CARTESIAN_POINT('Origin',(46.5756097560976,-0.2,1.7914131889554));
#595=CARTESIAN_POINT('',(46.5756097560976,-0.2,1.79141318895558));
#596=CARTESIAN_POINT('',(30.3317073170732,-0.2,3.38378046802687));
#597=CARTESIAN_POINT('',(46.5756097560976,-0.2,1.7914131889554));
#598=CARTESIAN_POINT('',(30.3317073170732,-2.3,3.38378046802687));
#599=CARTESIAN_POINT('',(30.3317073170732,0.,3.38378046802687));
#600=CARTESIAN_POINT('',(46.5756097560976,-2.3,1.79141318895558));
#601=CARTESIAN_POINT('',(46.5756097560976,-2.3,1.7914131889554));
#602=CARTESIAN_POINT('',(46.5756097560976,-0.2,1.79141318895558));
#603=CARTESIAN_POINT('Origin',(46.4,-0.2,0.));
#604=CARTESIAN_POINT('',(46.5756097560976,-0.2,-1.79141318895558));
#605=CARTESIAN_POINT('Origin',(46.4,-0.2,0.));
#606=CARTESIAN_POINT('',(46.5756097560976,-2.3,-1.79141318895558));
#607=CARTESIAN_POINT('Origin',(46.4,-2.3,0.));
#608=CARTESIAN_POINT('',(46.5756097560976,-0.2,-1.79141318895558));
#609=CARTESIAN_POINT('Origin',(30.3317073170732,-0.2,-3.38378046802721));
#610=CARTESIAN_POINT('',(30.3317073170732,-0.2,-3.38378046802721));
#611=CARTESIAN_POINT('',(30.3317073170732,-0.2,-3.38378046802721));
#612=CARTESIAN_POINT('',(30.3317073170732,-2.3,-3.38378046802721));
#613=CARTESIAN_POINT('',(30.3317073170732,-2.3,-3.38378046802721));
#614=CARTESIAN_POINT('',(30.3317073170732,0.,-3.38378046802721));
#615=CARTESIAN_POINT('Origin',(39.2658536585367,-2.3,-1.73194791841524E-13));
#616=CARTESIAN_POINT('Origin',(30.,-2.3,0.));
#617=CARTESIAN_POINT('Origin',(39.2658536585367,-0.2,-1.73194791841524E-13));
#618=CARTESIAN_POINT('Origin',(30.,-0.2,0.));
#619=CARTESIAN_POINT('Origin',(30.,-2.77436787862763E-32,0.));
#620=CARTESIAN_POINT('',(27.6,-4.7,-2.93915231795365E-16));
#621=CARTESIAN_POINT('Origin',(30.,-4.7,0.));
#622=CARTESIAN_POINT('',(27.6,-2.77436787862763E-32,-2.93915231795365E-16));
#623=CARTESIAN_POINT('Origin',(30.,-2.77436787862763E-32,0.));
#624=CARTESIAN_POINT('',(26.6,-4.7,-4.163799117101E-16));
#625=CARTESIAN_POINT('Origin',(30.,-4.7,0.));
#626=CARTESIAN_POINT('',(26.6,-2.77436787862763E-32,-4.163799117101E-16));
#627=CARTESIAN_POINT('',(26.6,-2.77436787862763E-32,-4.163799117101E-16));
#628=CARTESIAN_POINT('Origin',(30.,-2.77436787862763E-32,0.));
#629=CARTESIAN_POINT('Origin',(30.,-4.7,0.));
#630=CARTESIAN_POINT('Origin',(30.,-2.77436787862763E-32,0.));
#631=UNCERTAINTY_MEASURE_WITH_UNIT(LENGTH_MEASURE(0.01),#635,
'DISTANCE_ACCURACY_VALUE',
'Maximum model space distance between geometric entities at asserted c
onnectivities');
#632=UNCERTAINTY_MEASURE_WITH_UNIT(LENGTH_MEASURE(0.01),#635,
'DISTANCE_ACCURACY_VALUE',
'Maximum model space distance between geometric entities at asserted c
onnectivities');
#633=(
GEOMETRIC_REPRESENTATION_CONTEXT(3)
GLOBAL_UNCERTAINTY_ASSIGNED_CONTEXT((#631))
GLOBAL_UNIT_ASSIGNED_CONTEXT((#635,#637,#638))
REPRESENTATION_CONTEXT('','3D')
);
#634=(
GEOMETRIC_REPRESENTATION_CONTEXT(3)
GLOBAL_UNCERTAINTY_ASSIGNED_CONTEXT((#632))
GLOBAL_UNIT_ASSIGNED_CONTEXT((#635,#637,#638))
REPRESENTATION_CONTEXT('','3D')
);
#635=(
LENGTH_UNIT()
NAMED_UNIT(*)
SI_UNIT(.MILLI.,.METRE.)
);
#636=(
LENGTH_UNIT()
NAMED_UNIT(*)
SI_UNIT($,.METRE.)
);
#637=(
NAMED_UNIT(*)
PLANE_ANGLE_UNIT()
SI_UNIT($,.RADIAN.)
);
#638=(
NAMED_UNIT(*)
SI_UNIT($,.STERADIAN.)
SOLID_ANGLE_UNIT()
);
#639=SHAPE_DEFINITION_REPRESENTATION(#640,#641);
#640=PRODUCT_DEFINITION_SHAPE('',$,#643);
#641=SHAPE_REPRESENTATION('',(#375),#633);
#642=PRODUCT_DEFINITION_CONTEXT('part definition',#647,'design');
#643=PRODUCT_DEFINITION('Base (coxa) Joint','Base (coxa) Joint v12',#644,
#642);
#644=PRODUCT_DEFINITION_FORMATION('',$,#649);
#645=PRODUCT_RELATED_PRODUCT_CATEGORY('Base (coxa) Joint v12',
'Base (coxa) Joint v12',(#649));
#646=APPLICATION_PROTOCOL_DEFINITION('international standard',
'automotive_design',2009,#647);
#647=APPLICATION_CONTEXT(
'Core Data for Automotive Mechanical Design Process');
#648=PRODUCT_CONTEXT('part definition',#647,'mechanical');
#649=PRODUCT('Base (coxa) Joint','Base (coxa) Joint v12',$,(#648));
#650=PRESENTATION_STYLE_ASSIGNMENT((#659));
#651=PRESENTATION_STYLE_ASSIGNMENT((#660));
#652=PRESENTATION_STYLE_ASSIGNMENT((#661));
#653=PRESENTATION_STYLE_ASSIGNMENT((#662));
#654=PRESENTATION_STYLE_ASSIGNMENT((#663));
#655=PRESENTATION_STYLE_ASSIGNMENT((#664));
#656=PRESENTATION_STYLE_ASSIGNMENT((#665));
#657=PRESENTATION_STYLE_ASSIGNMENT((#666));
#658=PRESENTATION_STYLE_ASSIGNMENT((#667));
#659=SURFACE_STYLE_USAGE(.BOTH.,#668);
#660=SURFACE_STYLE_USAGE(.BOTH.,#669);
#661=SURFACE_STYLE_USAGE(.BOTH.,#670);
#662=SURFACE_STYLE_USAGE(.BOTH.,#671);
#663=SURFACE_STYLE_USAGE(.BOTH.,#672);
#664=SURFACE_STYLE_USAGE(.BOTH.,#673);
#665=SURFACE_STYLE_USAGE(.BOTH.,#674);
#666=SURFACE_STYLE_USAGE(.BOTH.,#675);
#667=SURFACE_STYLE_USAGE(.BOTH.,#676);
#668=SURFACE_SIDE_STYLE('',(#677));
#669=SURFACE_SIDE_STYLE('',(#678));
#670=SURFACE_SIDE_STYLE('',(#679));
#671=SURFACE_SIDE_STYLE('',(#680));
#672=SURFACE_SIDE_STYLE('',(#681));
#673=SURFACE_SIDE_STYLE('',(#682));
#674=SURFACE_SIDE_STYLE('',(#683));
#675=SURFACE_SIDE_STYLE('',(#684));
#676=SURFACE_SIDE_STYLE('',(#685));
#677=SURFACE_STYLE_FILL_AREA(#686);
#678=SURFACE_STYLE_FILL_AREA(#687);
#679=SURFACE_STYLE_FILL_AREA(#688);
#680=SURFACE_STYLE_FILL_AREA(#689);
#681=SURFACE_STYLE_FILL_AREA(#690);
#682=SURFACE_STYLE_FILL_AREA(#691);
#683=SURFACE_STYLE_FILL_AREA(#692);
#684=SURFACE_STYLE_FILL_AREA(#693);
#685=SURFACE_STYLE_FILL_AREA(#694);
#686=FILL_AREA_STYLE('Steel - Satin',(#695));
#687=FILL_AREA_STYLE('Opaque(26,26,26)',(#696));
#688=FILL_AREA_STYLE('Opaque(38,38,38)',(#697));
#689=FILL_AREA_STYLE('Opaque(151,81,0)',(#698));
#690=FILL_AREA_STYLE('Opaque(255,157,7)',(#699));
#691=FILL_AREA_STYLE('Opaque(189,41,31)',(#700));
#692=FILL_AREA_STYLE('Opaque(199,194,189)',(#701));
#693=FILL_AREA_STYLE('Opaque(255,0,255)',(#702));
#694=FILL_AREA_STYLE('Opaque(255,255,255)',(#703));
#695=FILL_AREA_STYLE_COLOUR('Steel - Satin',#704);
#696=FILL_AREA_STYLE_COLOUR('Opaque(26,26,26)',#705);
#697=FILL_AREA_STYLE_COLOUR('Opaque(38,38,38)',#706);
#698=FILL_AREA_STYLE_COLOUR('Opaque(151,81,0)',#707);
#699=FILL_AREA_STYLE_COLOUR('Opaque(255,157,7)',#708);
#700=FILL_AREA_STYLE_COLOUR('Opaque(189,41,31)',#709);
#701=FILL_AREA_STYLE_COLOUR('Opaque(199,194,189)',#710);
#702=FILL_AREA_STYLE_COLOUR('Opaque(255,0,255)',#711);
#703=FILL_AREA_STYLE_COLOUR('Opaque(255,255,255)',#712);
#704=COLOUR_RGB('Steel - Satin',0.627450980392157,0.627450980392157,0.627450980392157);
#705=COLOUR_RGB('Opaque(26,26,26)',0.101960784313725,0.101960784313725,
0.101960784313725);
#706=COLOUR_RGB('Opaque(38,38,38)',0.149019607843137,0.149019607843137,
0.149019607843137);
#707=COLOUR_RGB('Opaque(151,81,0)',0.592156862745098,0.317647058823529,
0.);
#708=COLOUR_RGB('Opaque(255,157,7)',1.,0.615686274509804,0.0274509803921569);
#709=COLOUR_RGB('Opaque(189,41,31)',0.741176470588235,0.16078431372549,
0.12156862745098);
#710=COLOUR_RGB('Opaque(199,194,189)',0.780392156862745,0.76078431372549,
0.741176470588235);
#711=COLOUR_RGB('Opaque(255,0,255)',1.,0.,1.);
#712=COLOUR_RGB('Opaque(255,255,255)',1.,1.,1.);
ENDSEC;
END-ISO-10303-21;
